<svg xmlns="http://www.w3.org/2000/svg" xmlns:xlink="http://www.w3.org/1999/xlink" viewBox="0 0 114.98 114.42"><defs><style>.cls-1{fill:#fff;stroke:#405391;stroke-linejoin:round;}.cls-2{fill:url(#linear-gradient);}.cls-3{fill:url(#linear-gradient-2);}.cls-4{fill:url(#linear-gradient-3);}.cls-5{fill:url(#linear-gradient-4);}</style><linearGradient id="linear-gradient" x1="33.56" y1="65.58" x2="83.79" y2="65.58" gradientUnits="userSpaceOnUse"><stop offset="0" stop-color="#0093ab"/><stop offset="0.42" stop-color="#0195ac"/></linearGradient><linearGradient id="linear-gradient-2" x1="76.94" y1="70.75" x2="76.94" y2="70.75" xlink:href="#linear-gradient"/><linearGradient id="linear-gradient-3" x1="19.13" y1="46.1" x2="98.22" y2="46.1" xlink:href="#linear-gradient"/><linearGradient id="linear-gradient-4" x1="74.03" y1="90.13" x2="79.85" y2="90.13" xlink:href="#linear-gradient"/></defs><title>Asset 1</title><g id="Layer_2" data-name="Layer 2"><g id="Layer_1-2" data-name="Layer 1"><path class="cls-1" d="M53.33.67A56.7,56.7,0,0,0,6.07,80.53a7.32,7.32,0,0,1,.24,5.29L.72,103.11a4.37,4.37,0,0,0,5.21,5.58l16.3-4.09a7.36,7.36,0,0,1,5.67.81A56.71,56.71,0,1,0,53.33.67Z"/><path class="cls-2" d="M83.79,50.69V72S78,80.47,58.67,80.47,33.56,72,33.56,72V50.69"/><line class="cls-3" x1="76.94" y1="54.29" x2="76.94" y2="87.22"/><path class="cls-4" d="M58.06,62.67l-38-16.14a1.58,1.58,0,0,1,.07-2.93l38-14.09a1.6,1.6,0,0,1,1.1,0l38,14.09a1.58,1.58,0,0,1,.07,2.93l-38,16.14A1.55,1.55,0,0,1,58.06,62.67Z"/><path class="cls-5" d="M76.94,93a2.91,2.91,0,1,1,2.91-2.91A2.91,2.91,0,0,1,76.94,93Z"/></g></g></svg>